<mxfile host="app.diagrams.net" modified="2022-08-05T18:40:55.811Z" agent="5.0 (X11; Linux x86_64) AppleWebKit/537.36 (KHTML, like Gecko) Chrome/104.0.0.0 Safari/537.36" etag="Zsh-8w3I_JmCbF47W46e" version="20.2.2" type="github">
  <diagram name="Page-1" id="edf60f1a-56cd-e834-aa8a-f176f3a09ee4">
    <mxGraphModel dx="2758" dy="671" grid="1" gridSize="10" guides="1" tooltips="1" connect="1" arrows="1" fold="1" page="1" pageScale="1" pageWidth="1100" pageHeight="850" background="none" math="0" shadow="0">
      <root>
        <mxCell id="0" />
        <mxCell id="1" parent="0" />
        <mxCell id="60e70716793133e9-51" value="Yes" style="edgeStyle=orthogonalEdgeStyle;rounded=0;html=1;labelBackgroundColor=none;startSize=5;endArrow=classicThin;endFill=1;endSize=5;jettySize=auto;orthogonalLoop=1;strokeWidth=1;fontFamily=Verdana;fontSize=8" parent="1" source="60e70716793133e9-21" edge="1">
          <mxGeometry x="-0.6924" y="-20" relative="1" as="geometry">
            <Array as="points">
              <mxPoint x="260" y="969.9999999999998" />
              <mxPoint x="260" y="770" />
            </Array>
            <mxPoint as="offset" />
            <mxPoint x="290" y="770" as="targetPoint" />
          </mxGeometry>
        </mxCell>
        <mxCell id="M8q3-gPtSNgFnh3sieyG-3" value="" style="edgeStyle=orthogonalEdgeStyle;rounded=0;orthogonalLoop=1;jettySize=auto;html=1;" edge="1" parent="1" source="M8q3-gPtSNgFnh3sieyG-1" target="M8q3-gPtSNgFnh3sieyG-2">
          <mxGeometry relative="1" as="geometry" />
        </mxCell>
        <mxCell id="M8q3-gPtSNgFnh3sieyG-1" value="Start" style="ellipse;whiteSpace=wrap;html=1;" vertex="1" parent="1">
          <mxGeometry x="360" y="30" width="70" height="30" as="geometry" />
        </mxCell>
        <mxCell id="M8q3-gPtSNgFnh3sieyG-5" value="" style="edgeStyle=orthogonalEdgeStyle;rounded=0;orthogonalLoop=1;jettySize=auto;html=1;" edge="1" parent="1" source="M8q3-gPtSNgFnh3sieyG-2" target="M8q3-gPtSNgFnh3sieyG-4">
          <mxGeometry relative="1" as="geometry" />
        </mxCell>
        <mxCell id="M8q3-gPtSNgFnh3sieyG-2" value="declare a highest variable and assign 0 to it" style="whiteSpace=wrap;html=1;" vertex="1" parent="1">
          <mxGeometry x="335" y="125" width="120" height="60" as="geometry" />
        </mxCell>
        <mxCell id="M8q3-gPtSNgFnh3sieyG-7" value="" style="edgeStyle=orthogonalEdgeStyle;rounded=0;orthogonalLoop=1;jettySize=auto;html=1;" edge="1" parent="1" source="M8q3-gPtSNgFnh3sieyG-4" target="M8q3-gPtSNgFnh3sieyG-6">
          <mxGeometry relative="1" as="geometry" />
        </mxCell>
        <mxCell id="M8q3-gPtSNgFnh3sieyG-4" value="create a for loop to iter the list of scores&lt;br&gt;" style="whiteSpace=wrap;html=1;" vertex="1" parent="1">
          <mxGeometry x="335" y="265" width="120" height="60" as="geometry" />
        </mxCell>
        <mxCell id="M8q3-gPtSNgFnh3sieyG-13" value="" style="edgeStyle=orthogonalEdgeStyle;rounded=0;orthogonalLoop=1;jettySize=auto;html=1;" edge="1" parent="1" source="M8q3-gPtSNgFnh3sieyG-6" target="M8q3-gPtSNgFnh3sieyG-12">
          <mxGeometry relative="1" as="geometry" />
        </mxCell>
        <mxCell id="M8q3-gPtSNgFnh3sieyG-15" value="" style="edgeStyle=orthogonalEdgeStyle;rounded=0;orthogonalLoop=1;jettySize=auto;html=1;" edge="1" parent="1" source="M8q3-gPtSNgFnh3sieyG-6" target="M8q3-gPtSNgFnh3sieyG-14">
          <mxGeometry relative="1" as="geometry" />
        </mxCell>
        <mxCell id="M8q3-gPtSNgFnh3sieyG-6" value="the score is greater than value of the highest?" style="rhombus;whiteSpace=wrap;html=1;" vertex="1" parent="1">
          <mxGeometry x="220" y="425" width="350" height="110" as="geometry" />
        </mxCell>
        <UserObject label="Yes" placeholders="1" name="Variable" id="M8q3-gPtSNgFnh3sieyG-10">
          <mxCell style="text;html=1;strokeColor=none;fillColor=none;align=center;verticalAlign=middle;whiteSpace=wrap;overflow=hidden;" vertex="1" parent="1">
            <mxGeometry x="630" y="460" width="80" height="20" as="geometry" />
          </mxCell>
        </UserObject>
        <mxCell id="M8q3-gPtSNgFnh3sieyG-27" value="" style="edgeStyle=orthogonalEdgeStyle;rounded=0;orthogonalLoop=1;jettySize=auto;html=1;" edge="1" parent="1" source="M8q3-gPtSNgFnh3sieyG-12" target="M8q3-gPtSNgFnh3sieyG-26">
          <mxGeometry relative="1" as="geometry" />
        </mxCell>
        <mxCell id="M8q3-gPtSNgFnh3sieyG-12" value="highest = score" style="shape=parallelogram;perimeter=parallelogramPerimeter;whiteSpace=wrap;html=1;fixedSize=1;" vertex="1" parent="1">
          <mxGeometry x="765" y="450" width="120" height="60" as="geometry" />
        </mxCell>
        <mxCell id="M8q3-gPtSNgFnh3sieyG-16" style="edgeStyle=orthogonalEdgeStyle;rounded=0;orthogonalLoop=1;jettySize=auto;html=1;entryX=0;entryY=0.5;entryDx=0;entryDy=0;" edge="1" parent="1" source="M8q3-gPtSNgFnh3sieyG-14" target="M8q3-gPtSNgFnh3sieyG-4">
          <mxGeometry relative="1" as="geometry">
            <Array as="points">
              <mxPoint x="-30" y="295" />
            </Array>
          </mxGeometry>
        </mxCell>
        <mxCell id="M8q3-gPtSNgFnh3sieyG-14" value="continue loop&lt;br&gt;" style="shape=parallelogram;perimeter=parallelogramPerimeter;whiteSpace=wrap;html=1;fixedSize=1;" vertex="1" parent="1">
          <mxGeometry x="-95" y="450" width="120" height="60" as="geometry" />
        </mxCell>
        <UserObject label="No" placeholders="1" name="Variable" id="M8q3-gPtSNgFnh3sieyG-17">
          <mxCell style="text;html=1;strokeColor=none;fillColor=none;align=center;verticalAlign=middle;whiteSpace=wrap;overflow=hidden;" vertex="1" parent="1">
            <mxGeometry x="80" y="460" width="80" height="20" as="geometry" />
          </mxCell>
        </UserObject>
        <mxCell id="M8q3-gPtSNgFnh3sieyG-29" value="" style="edgeStyle=orthogonalEdgeStyle;rounded=0;orthogonalLoop=1;jettySize=auto;html=1;" edge="1" parent="1" source="M8q3-gPtSNgFnh3sieyG-26" target="M8q3-gPtSNgFnh3sieyG-28">
          <mxGeometry relative="1" as="geometry" />
        </mxCell>
        <mxCell id="M8q3-gPtSNgFnh3sieyG-26" value="print(highest)" style="shape=parallelogram;perimeter=parallelogramPerimeter;whiteSpace=wrap;html=1;fixedSize=1;" vertex="1" parent="1">
          <mxGeometry x="765" y="590" width="120" height="60" as="geometry" />
        </mxCell>
        <mxCell id="M8q3-gPtSNgFnh3sieyG-28" value="end&lt;br&gt;" style="ellipse;whiteSpace=wrap;html=1;" vertex="1" parent="1">
          <mxGeometry x="765" y="730" width="120" height="60" as="geometry" />
        </mxCell>
      </root>
    </mxGraphModel>
  </diagram>
</mxfile>
